# xmcd CD database file
#
# Track frame offsets:
#	150
#	44949
#	111550
#	113453
#	117153
#	177112
#
# Disc length: 2468 seconds
#
# Revision: 0
# Processed by: cddbd v1.5.1PL2 Copyright (c) Steve Scherf et al.
# Submitted via: CDex 1.51
#
DISCID=5009a206
DTITLE=Miles Davis - Fillmore East 1970 (Disc2)
DYEAR=1900
DGENRE=Jazz
TTITLE0=Directions
TTITLE1=Miles Runs The Voodoo Down
TTITLE2=I Fall In Love Too Easily
TTITLE3=Sanctuary
TTITLE4=It's About That Time
TTITLE5=The Theme
EXTD=
EXTT0=
EXTT1=
EXTT2=
EXTT3=
EXTT4=
EXTT5=
PLAYORDER=
